<?xml version="1.0" standalone="no"?>
<!DOCTYPE svg PUBLIC "-//W3C//DTD SVG 20010904//EN"
 "http://www.w3.org/TR/2001/REC-SVG-20010904/DTD/svg10.dtd">
<svg version="1.0" xmlns="http://www.w3.org/2000/svg"
 width="200.000000pt" height="200.000000pt" viewBox="0 0 200.000000 200.000000"
 preserveAspectRatio="xMidYMid meet">
<metadata>
Created by potrace 1.15, written by Peter Selinger 2001-2017
</metadata>
<g transform="translate(0.000000,200.000000) scale(0.100000,-0.100000)"
fill="#a93e5b" stroke="none">
<path d="M833 1556 c-261 -50 -549 -218 -771 -449 -56 -59 -62 -69 -62 -108 0
-42 4 -48 93 -134 383 -376 806 -513 1201 -388 179 57 377 175 548 327 130
116 158 151 158 200 0 36 -7 46 -92 130 -208 204 -443 346 -675 407 -101 27
-299 34 -400 15z m278 -196 c246 -77 345 -375 194 -582 -182 -249 -573 -184
-665 111 -25 80 -25 142 0 222 63 201 272 311 471 249z"/>
<path d="M929 1113 c-38 -23 -59 -64 -59 -113 0 -80 52 -130 135 -130 42 0 52
5 86 39 34 34 39 44 39 86 0 84 -50 135 -132 135 -23 0 -55 -8 -69 -17z"/>
</g>
</svg>
